HIERARCHY
ROOT Hips
{
	OFFSET 0.00000 0.00000 0.00000
	CHANNELS 6 Xposition Yposition Zposition Zrotation Yrotation Xrotation 
	JOINT LHipJoint
	{
		OFFSET 0 0 0
		CHANNELS 3 Zrotation Yrotation Xrotation
		JOINT LeftUpLeg
		{
			OFFSET 1.29432 -1.88279 0.59910
			CHANNELS 3 Zrotation Yrotation Xrotation
			JOINT LeftLeg
			{
				OFFSET 2.63039 -7.22694 0.00000
				CHANNELS 3 Zrotation Yrotation Xrotation
				JOINT LeftFoot
				{
					OFFSET 2.70674 -7.43672 0.00000
					CHANNELS 3 Zrotation Yrotation Xrotation
					JOINT LeftToeBase
					{
						OFFSET 0.15066 -0.41394 2.09027
						CHANNELS 3 Zrotation Yrotation Xrotation
						End Site
						{
							OFFSET 0.00000 -0.00000 1.07518
						}
					}
				}
			}
		}
	}
	JOINT RHipJoint
	{
		OFFSET 0 0 0
		CHANNELS 3 Zrotation Yrotation Xrotation
		JOINT RightUpLeg
		{
			OFFSET -1.37068 -1.88279 0.59910
			CHANNELS 3 Zrotation Yrotation Xrotation
			JOINT RightLeg
			{
				OFFSET -2.57023 -7.06166 0.00000
				CHANNELS 3 Zrotation Yrotation Xrotation
				JOINT RightFoot
				{
					OFFSET -2.76461 -7.59570 0.00000
					CHANNELS 3 Zrotation Yrotation Xrotation
					JOINT RightToeBase
					{
						OFFSET -0.24175 -0.64785 2.19719
						CHANNELS 3 Zrotation Yrotation Xrotation
						End Site
						{
							OFFSET -0.00000 -0.00000 1.14803
						}
					}
				}
			}
		}
	}
	JOINT LowerBack
	{
		OFFSET 0 0 0
		CHANNELS 3 Zrotation Yrotation Xrotation
		JOINT Spine
		{
			OFFSET -0.03138 2.03983 -0.23106
			CHANNELS 3 Zrotation Yrotation Xrotation
			JOINT Spine1
			{
				OFFSET -0.00325 2.06238 -0.06878
				CHANNELS 3 Zrotation Yrotation Xrotation
				JOINT Neck
				{
					OFFSET 0 0 0
					CHANNELS 3 Zrotation Yrotation Xrotation
					JOINT Neck1
					{
						OFFSET -0.00002 1.75318 0.18090
						CHANNELS 3 Zrotation Yrotation Xrotation
						JOINT Head
						{
							OFFSET 0.08806 1.75856 -0.25387
							CHANNELS 3 Zrotation Yrotation Xrotation
							End Site
							{
								OFFSET 0.02554 1.78597 -0.10684
							}
						}
					}
				}
				JOINT LeftShoulder
				{
					OFFSET 0 0 0
					CHANNELS 3 Zrotation Yrotation Xrotation
					JOINT LeftArm
					{
						OFFSET 3.09657 1.33597 -0.04414
						CHANNELS 3 Zrotation Yrotation Xrotation
						JOINT LeftForeArm
						{
							OFFSET 5.34298 -0.00000 -0.00000
							CHANNELS 3 Zrotation Yrotation Xrotation
							JOINT LeftHand
							{
								OFFSET 3.67262 -0.00000 -0.00000
								CHANNELS 3 Zrotation Yrotation Xrotation
								JOINT LeftFingerBase
								{
									OFFSET 0 0 0
									CHANNELS 3 Zrotation Yrotation Xrotation
									JOINT LeftHandIndex1
									{
										OFFSET 0.59930 -0.00000 -0.00000
										CHANNELS 3 Zrotation Yrotation Xrotation
										End Site
										{
											OFFSET 0.48317 -0.00000 -0.00000
										}
									}
								}
								JOINT LThumb
								{
									OFFSET 0 0 0
									CHANNELS 3 Zrotation Yrotation Xrotation
									End Site
									{
										OFFSET 0.49055 -0.00000 0.49055
									}
								}
							}
						}
					}
				}
				JOINT RightShoulder
				{
					OFFSET 0 0 0
					CHANNELS 3 Zrotation Yrotation Xrotation
					JOINT RightArm
					{
						OFFSET -3.16460 1.32273 -0.23382
						CHANNELS 3 Zrotation Yrotation Xrotation
						JOINT RightForeArm
						{
							OFFSET -5.54967 -0.01834 0.03348
							CHANNELS 3 Zrotation Yrotation Xrotation
							JOINT RightHand
							{
								OFFSET -3.69401 -0.00000 0.00000
								CHANNELS 3 Zrotation Yrotation Xrotation
								JOINT RightFingerBase
								{
									OFFSET 0 0 0
									CHANNELS 3 Zrotation Yrotation Xrotation
									JOINT RightHandIndex1
									{
										OFFSET -0.63811 -0.00000 0.00000
										CHANNELS 3 Zrotation Yrotation Xrotation
										End Site
										{
											OFFSET -0.51446 -0.00000 0.00000
										}
									}
								}
								JOINT RThumb
								{
									OFFSET 0 0 0
									CHANNELS 3 Zrotation Yrotation Xrotation
									End Site
									{
										OFFSET -0.52232 -0.00000 0.52232
									}
								}
							}
						}
					}
				}
			}
		}
	}
}
MOTION
Frames: 6
Frame Time: .0083333
9.0121 18.4177 -11.9902 0 0 0 0 0 0 -21 0 0 0 0 0 0 0 0 0 0 0 0 0 0 21 0 0 0 0 0 0 0 0 0 0 0 0 0 0 0 0 0 0 0 0 0 0 -16 0 0 21 0 0 11 0 0 0 -8 0 0 0 0 0 0 0 0 0 0 0 0 0 0 0 0 0 0 0 0 8 0 0 0 0 0 0 0 0 0 0 0 0 0 0 0 0 0
9.0121 18.4177 -11.9902 3.8582 -9.5508 1.5566 0.0000 0.0000 0.0000 -22.0619 -2.7902 -13.9229 0.4128 4.1242 11.4262 -0.0377 3.4422 -1.3768 0.1696 2.6527 7.3134 0.0000 0.0000 0.0000 13.2374 7.8565 -1.8556 -5.9490 -14.3787 44.7765 0.0661 4.7597 3.2062 -1.3267 7.2943 -20.5901 -6.4129 0.7573 0.5532 -1.8740 1.0397 1.5676 1.6671 0.4535 1.2275 -0.5581 -0.9177 -11.4545 5.3137 -2.4615 22.5854 1.6305 -0.6546 9.0387 0.0000 -0.0000 0.0000 -89.3556 3.4404 1.6166 13.5143 -22.0362 -2.6432 -0.0000 -0.0000 25.3931 13.8883 28.8058 6.7942 -7.1250 0.0000 -0.0000 -18.9928 58.4864 -6.4123 0.0000 -0.0000 0.0000 89.2292 -4.3396 7.7352 -12.8983 21.1381 -2.4165 0.0000 0.0000 26.5916 -25.4664 23.4344 -10.7251 7.1250 -0.0000 -0.0000 2.2797 -4.3516 2.1018
9.0235 18.4261 -11.9072 4.1698 -9.4194 1.5948 0.0000 0.0000 0.0000 -22.5722 -2.2934 -13.6348 0.3791 3.9542 10.9479 -0.0256 2.8591 -1.4131 0.2091 2.9440 8.1228 0.0000 0.0000 0.0000 12.6697 7.5431 -3.0177 -6.2424 -14.6592 45.9470 0.0481 3.9006 1.0852 -0.8756 5.9658 -16.6853 -6.8257 0.4397 0.5981 -1.7486 0.6005 1.3400 2.0234 0.2404 0.9965 -1.0475 -0.7222 -10.7238 5.3430 -2.0886 22.5565 1.7645 -0.5313 8.8813 -0.0000 0.0000 0.0000 -89.5974 3.8513 1.5783 13.8325 -22.4948 -2.7637 -0.0000 -0.0000 25.2198 16.0088 28.0951 7.6950 -7.1250 0.0000 -0.0000 -16.3059 58.2759 -5.3882 -0.0000 0.0000 0.0000 88.7511 -4.7020 8.5587 -12.9052 21.1481 -2.4190 0.0000 0.0000 27.0803 -25.4540 23.7854 -10.8670 7.1250 -0.0000 -0.0000 2.3312 -3.9799 2.1656
9.0372 18.4424 -11.8343 4.3819 -9.1632 1.7235 0.0000 0.0000 0.0000 -22.9855 -1.9453 -13.6558 0.3754 3.9349 10.8937 -0.0148 2.2148 -1.3379 0.1797 2.7308 7.5302 0.0000 0.0000 0.0000 12.2009 7.0864 -4.2568 -6.4613 -14.8609 46.8061 0.0188 2.7919 -0.4412 -0.8373 5.8371 -16.3124 -6.8409 0.2375 0.8138 -1.8954 0.3023 1.1477 1.8793 0.1048 0.7028 -1.0825 -0.6054 -10.3891 5.5462 -1.9673 22.5791 1.8527 -0.4622 8.8241 -0.0000 0.0000 0.0000 -89.2546 3.9601 1.8651 14.1212 -22.9077 -2.8751 -0.0000 -0.0000 25.4558 11.9323 30.7478 6.1663 -7.1250 0.0000 -0.0000 -22.4767 59.8497 -8.4018 -0.0000 0.0000 0.0000 88.9080 -4.9656 8.8138 -12.9966 21.2822 -2.4520 0.0000 0.0000 27.5460 -25.8624 23.6290 -10.9955 7.1250 -0.0000 -0.0000 2.0600 -4.0658 1.9100
9.0462 18.4581 -11.7563 4.4663 -9.0126 1.7631 0.0000 0.0000 0.0000 -23.2646 -1.5753 -13.5024 0.3652 3.8822 10.7455 -0.0112 1.8927 -0.9563 0.0880 1.9133 5.2660 0.0000 0.0000 0.0000 11.9643 6.7432 -5.3054 -6.6577 -15.0367 47.5675 -0.0111 1.2435 -1.9366 -0.9405 6.1770 -17.2989 -7.6540 0.0478 0.2177 -1.3711 0.1263 1.5643 2.8733 -0.0286 1.4843 -1.3514 -0.5043 -10.5212 5.2233 -1.6870 22.3902 1.8159 -0.3864 8.7711 0.0000 0.0000 0.0000 -89.8786 3.1607 2.4034 14.0953 -22.8708 -2.8650 -0.0000 -0.0000 23.9771 14.0734 30.0068 7.1459 -7.1250 0.0000 -0.0000 -19.6591 59.6582 -7.2046 0.0000 0.0000 0.0000 88.1713 -4.3924 9.0641 -13.0911 21.4205 -2.4865 0.0000 0.0000 27.5533 -25.8035 23.1820 -10.7762 7.1250 -0.0000 -0.0000 2.0398 -4.5553 1.8726
9.0515 18.4623 -11.6826 4.2982 -9.1246 1.8032 0.0000 0.0000 0.0000 -23.1328 -1.4132 -13.2737 0.3606 3.8575 10.6760 -0.0082 1.7145 -1.2485 0.1110 2.1481 5.9151 0.0000 0.0000 0.0000 12.1155 6.8521 -6.1623 -6.8137 -15.1729 48.1660 -0.0290 -0.5660 -3.4755 -0.8108 5.7464 -16.0502 -7.5830 -0.1375 0.1192 -1.2899 -0.0993 1.8050 2.9141 -0.1579 1.8133 -1.0939 -0.2615 -11.1179 5.0982 -1.3848 22.6334 1.7665 -0.2251 8.9531 0.0000 0.0000 0.0000 -89.7827 2.7402 3.0528 14.1179 -22.9030 -2.8738 -0.0000 -0.0000 21.3096 17.6898 28.3738 8.6187 -7.1250 0.0000 -0.0000 -14.6998 58.9221 -5.0707 0.0000 0.0000 0.0000 88.2137 -3.9068 9.5085 -13.1315 21.4797 -2.5012 0.0000 0.0000 27.2880 -25.4534 23.3218 -10.6715 7.1250 -0.0000 -0.0000 2.2737 -4.4742 2.0911
